<?xml version="1.0" encoding="UTF-8" standalone="no"?>
<svg
   viewBox="0 0 50 50"
   width="50"
   height="50"
   version="1.1"
   id="svg475"
   xmlns="http://www.w3.org/2000/svg"
   xmlns:svg="http://www.w3.org/2000/svg">
  <defs
     id="defs479" />
  <path
     d="M 25,2 C 12.318,2 2,12.317 2,25 2,37.683 12.318,48 25,48 37.682,48 48,37.683 48,25 48,12.317 37.682,2 25,2 Z M 35,29.866 C 35,32.701 32.701,35 29.866,35 h -0.101 c -1.785,0 -3.452,-1.214 -3.725,-2.977 -0.05,-0.325 -0.053,-0.649 -0.01,-0.973 0.18,-1.39 1.17,-2.52 2.48,-2.91 l 0.29,-0.07 3.447,-0.878 C 32.69,27.079 33,26.68 33,26.223 v -6.164 c 0,-0.622 -0.561,-1.093 -1.174,-0.985 L 22.15,20.958 C 21.485,21.075 21,21.653 21,22.329 V 32.865 C 21,35.701 18.701,38 15.866,38 h -0.101 c -1.785,0 -3.452,-1.214 -3.725,-2.977 -0.05,-0.325 -0.053,-0.649 -0.01,-0.973 0.18,-1.39 1.17,-2.52 2.48,-2.91 l 0.29,-0.07 3.447,-0.878 C 18.69,30.079 19,29.68 19,29.223 V 15.956 c 0,-0.664 0.476,-1.232 1.13,-1.347 L 33.826,12.015 C 34.439,11.907 35,12.378 35,13 Z"
     id="path473" />
</svg>
