<?xml version="1.0" encoding="UTF-8" standalone="no"?>
<svg
   version="1.0"
   width="96.000000pt"
   height="96.000000pt"
   viewBox="0 0 96.000000 96.000000"
   preserveAspectRatio="xMidYMid meet"
   id="svg10"
   sodipodi:docname="repeat.svg"
   inkscape:version="1.2.1 (9c6d41e410, 2022-07-14)"
   xmlns:inkscape="http://www.inkscape.org/namespaces/inkscape"
   xmlns:sodipodi="http://sodipodi.sourceforge.net/DTD/sodipodi-0.dtd"
   xmlns="http://www.w3.org/2000/svg"
   xmlns:svg="http://www.w3.org/2000/svg">
  <defs
     id="defs14" />
  <sodipodi:namedview
     id="namedview12"
     pagecolor="#ffffff"
     bordercolor="#000000"
     borderopacity="0.25"
     inkscape:showpageshadow="2"
     inkscape:pageopacity="0.0"
     inkscape:pagecheckerboard="0"
     inkscape:deskcolor="#d1d1d1"
     inkscape:document-units="pt"
     showgrid="true"
     inkscape:zoom="2.2898106"
     inkscape:cx="-0.87343467"
     inkscape:cy="5.6773254"
     inkscape:window-width="1920"
     inkscape:window-height="1009"
     inkscape:window-x="1712"
     inkscape:window-y="1072"
     inkscape:window-maximized="1"
     inkscape:current-layer="svg10">
    <inkscape:grid
       type="xygrid"
       id="grid344" />
  </sodipodi:namedview>
  <metadata
     id="metadata2">
Created by potrace 1.10, written by Peter Selinger 2001-2011
</metadata>
  <g
     transform="translate(0.000000,96.000000) scale(0.100000,-0.100000)"
     fill="#000000"
     stroke="none"
     id="g8"
     inkscape:export-filename="repeat.svg"
     inkscape:export-xdpi="45.714287"
     inkscape:export-ydpi="45.714287"
     style="stroke-width:0;stroke-dasharray:none;fill:#f1f1f1;fill-opacity:1">
    <path
       id="path399"
       style="fill:#f1f1f1;fill-opacity:1;stroke-width:0;stroke-dasharray:none"
       d="M 262.5,810 C 112.5,810 75,735 75,622.5 L 75,360 C 75,247.50022 112.5003,172.5 262.5,172.5 H 375 v 75 H 262.5 C 187.5,247.5 150,285 150,360 l 0,262.5 c 0,75 37.5,112.5 112.5,112.5 H 675 c 75,0 112.5,-37.5 112.5,-112.5 l 0,-262.5 C 787.5,285 750,247.5 675,247.5 h -37.5 v 75 L 450,210 637.5,97.5 v 75 H 675 c 149.99985,0 187.5,75 187.5,187.5 l 0,262.5 C 862.5,735 825,810 675,810 Z"
       sodipodi:nodetypes="sssscccssssccccccccsccss"
       inkscape:export-filename="repeat.svg"
       inkscape:export-xdpi="45.714287"
       inkscape:export-ydpi="45.714287" />
  </g>
</svg>
