<?xml version="1.0" encoding="UTF-8" standalone="no"?>
<svg
   version="1.0"
   width="96.000000pt"
   height="96.000000pt"
   viewBox="0 0 96.000000 96.000000"
   preserveAspectRatio="xMidYMid meet"
   id="svg10"
   sodipodi:docname="shuffle.svg"
   inkscape:version="1.2.1 (9c6d41e410, 2022-07-14)"
   xmlns:inkscape="http://www.inkscape.org/namespaces/inkscape"
   xmlns:sodipodi="http://sodipodi.sourceforge.net/DTD/sodipodi-0.dtd"
   xmlns="http://www.w3.org/2000/svg"
   xmlns:svg="http://www.w3.org/2000/svg">
  <defs
     id="defs14" />
  <sodipodi:namedview
     id="namedview12"
     pagecolor="#ffffff"
     bordercolor="#000000"
     borderopacity="0.25"
     inkscape:showpageshadow="2"
     inkscape:pageopacity="0.0"
     inkscape:pagecheckerboard="0"
     inkscape:deskcolor="#d1d1d1"
     inkscape:document-units="pt"
     showgrid="true"
     inkscape:zoom="4.5796213"
     inkscape:cx="-6.55076"
     inkscape:cy="51.095928"
     inkscape:window-width="1920"
     inkscape:window-height="1009"
     inkscape:window-x="1712"
     inkscape:window-y="1072"
     inkscape:window-maximized="1"
     inkscape:current-layer="svg10">
    <inkscape:grid
       type="xygrid"
       id="grid290" />
  </sodipodi:namedview>
  <metadata
     id="metadata2">
Created by potrace 1.10, written by Peter Selinger 2001-2011
</metadata>
  <g
     transform="translate(0.000000,96.000000) scale(0.100000,-0.100000)"
     fill="#000000"
     stroke="none"
     id="g8"
     style="fill:#f1f1f1;fill-opacity:1"
     inkscape:export-filename="shuffle.svg"
     inkscape:export-xdpi="45.714287"
     inkscape:export-ydpi="45.714287">
    <path
       d="M 675,735 H 637.5 C 450,735 262.5,360 112.5,360 L 75,359 v -74 h 37.5 c 187.5,0 375,375 525,375 H 675 V 585 L 862.5,697.5 675,810 Z"
       id="path4"
       sodipodi:nodetypes="cccccccccccc"
       style="fill:#f1f1f1;fill-opacity:1" />
    <path
       id="path577"
       style="fill:#f1f1f1;fill-opacity:1"
       d="M 675,810 V 735 H 637.5 C 450.00019,735 262.49985,360 112.5,360 L 75,359.00391 V 285 h 37.5 c 187.49981,0 375.00015,375 525,375 H 675 V 585 L 862.5,697.5 Z M 75,735 V 660.99609 L 112.5,660 c 74.99993,0 150,-75 150,-75 l 52.5,45 c 0,0 -90.00011,105 -202.5,105 z M 502.5,450 450,397.5 c 0,0 75.00011,-112.5 187.5,-112.5 H 675 V 210 L 862.5,322.5 675,435 v -75 h -37.5 c -74.99992,0 -135,90 -135,90 z"
       inkscape:export-filename="shuffle.svg"
       inkscape:export-xdpi="45.714287"
       inkscape:export-ydpi="45.714287"
       sodipodi:nodetypes="ccscccsscccccccccscccscccccsc" />
  </g>
  <g
     transform="translate(0.000000,96.000000) scale(0.100000,-0.100000)"
     fill="#000000"
     stroke="none"
     id="g1140"
     style="fill:#f1f1f1;fill-opacity:1" />
</svg>
