<?xml version="1.0" encoding="UTF-8" standalone="no"?>
<!-- Created with Inkscape (http://www.inkscape.org/) -->

<svg
   width="9.2604141mm"
   height="9.2604218mm"
   viewBox="0 0 9.2604141 9.2604218"
   version="1.1"
   id="svg5"
   xml:space="preserve"
   xmlns:inkscape="http://www.inkscape.org/namespaces/inkscape"
   xmlns:sodipodi="http://sodipodi.sourceforge.net/DTD/sodipodi-0.dtd"
   xmlns="http://www.w3.org/2000/svg"
   xmlns:svg="http://www.w3.org/2000/svg"><sodipodi:namedview
     id="namedview7"
     pagecolor="#ffffff"
     bordercolor="#000000"
     borderopacity="0.25"
     inkscape:showpageshadow="2"
     inkscape:pageopacity="0.0"
     inkscape:pagecheckerboard="0"
     inkscape:deskcolor="#d1d1d1"
     inkscape:document-units="mm"
     showgrid="true"><inkscape:grid
       type="xygrid"
       id="grid247" /></sodipodi:namedview><defs
     id="defs2" /><g
     inkscape:label="Layer 1"
     inkscape:groupmode="layer"
     id="layer1"
     transform="translate(-95.250002,-144.19792)"><g
       style="clip-rule:evenodd;fill-rule:evenodd"
       id="g191"
       transform="matrix(0.26458333,0,0,0.26458333,96.572917,145.52083)"><path
         d="M 19.098,10.638 C 15.23,8.341 8.85,8.13 5.157,9.251 4.564,9.431 3.937,9.096 3.758,8.503 3.578,7.91 3.912,7.283 4.506,7.103 8.745,5.816 15.791,6.065 20.244,8.708 c 0.533,0.317 0.708,1.005 0.392,1.538 -0.316,0.533 -1.005,0.709 -1.538,0.392 z m -0.126,3.403 C 18.7,14.481 18.125,14.619 17.685,14.349 14.46,12.367 9.543,11.792 5.727,12.95 5.233,13.1 4.71,12.821 4.56,12.327 4.411,11.832 4.69,11.311 5.184,11.16 c 4.358,-1.322 9.776,-0.682 13.48,1.595 0.44,0.27 0.578,0.847 0.308,1.286 z m -1.469,3.267 c -0.215,0.354 -0.676,0.465 -1.028,0.249 C 13.657,15.835 10.11,15.446 5.933,16.4 5.531,16.492 5.13,16.24 5.038,15.838 4.946,15.435 5.197,15.034 5.6,14.942 c 4.571,-1.045 8.492,-0.595 11.655,1.338 0.353,0.215 0.464,0.676 0.248,1.028 z M 12,0 C 5.373,0 0,5.373 0,12 0,18.628 5.373,24 12,24 18.628,24 24,18.628 24,12 24,5.373 18.628,0 12,0 Z"
         id="path182" /></g><path
       style="fill:none;stroke:none;stroke-width:1"
       d="m 104.51042,153.45833 v -9.26042 h -9.260421 v 9.26042 z"
       id="path404" /></g></svg>
